<svg width="204" height="60" viewBox="0 0 204 60" fill="none" xmlns="http://www.w3.org/2000/svg">
<path d="M196.444 60H7.55556C3.40189 60 0 56.6231 0 52.5V7.5C0 3.37688 3.40189 3.17096e-06 7.55556 3.17096e-06H196.444C200.598 3.17096e-06 204 3.37688 204 7.5V52.5C204 56.6231 200.598 60 196.444 60Z" fill="black"/>
<path d="M196.444 1.20187C199.943 1.20187 202.789 4.0275 202.789 7.5V52.5C202.789 55.9725 199.943 58.7981 196.444 58.7981H7.55556C4.05733 58.7981 1.21078 55.9725 1.21078 52.5V7.5C1.21078 4.0275 4.05733 1.20187 7.55556 1.20187H196.444ZM196.444 3.17096e-06H7.55556C3.40189 3.17096e-06 0 3.37688 0 7.5V52.5C0 56.6231 3.40189 60 7.55556 60H196.444C200.598 60 204 56.6231 204 52.5V7.5C204 3.37688 200.598 3.17096e-06 196.444 3.17096e-06Z" fill="#A6A6A6"/>
<path d="M71.6532 15.3656C71.6532 16.6181 71.2754 17.6212 70.5312 18.3694C69.6755 19.2562 68.5611 19.7025 67.1954 19.7025C65.8902 19.7025 64.7757 19.2487 63.8615 18.3544C62.9454 17.4469 62.4883 16.3331 62.4883 15C62.4883 13.6669 62.9454 12.5531 63.8615 11.6531C64.7757 10.7512 65.8902 10.2975 67.1954 10.2975C67.8452 10.2975 68.4647 10.4306 69.0559 10.6781C69.6453 10.9275 70.1251 11.265 70.4726 11.6812L69.6831 12.4725C69.0767 11.7619 68.2513 11.4112 67.1954 11.4112C66.2434 11.4112 65.4179 11.7412 64.7172 12.4069C64.0239 13.0744 63.6764 13.9387 63.6764 15C63.6764 16.0612 64.0239 16.9331 64.7172 17.6006C65.4179 18.2587 66.2434 18.5962 67.1954 18.5962C68.206 18.5962 69.056 18.2587 69.7265 17.5931C70.1685 17.1525 70.4197 16.545 70.4858 15.7687H67.1954V14.685H71.5852C71.6381 14.9194 71.6532 15.1462 71.6532 15.3656Z" fill="white" stroke="white" stroke-width="0.16" stroke-miterlimit="10"/>
<path d="M78.617 11.608H74.4935V14.458H78.2108V15.5418H74.4935V18.3918H78.617V19.4962H73.3262V10.5037H78.617V11.608Z" fill="white" stroke="white" stroke-width="0.16" stroke-miterlimit="10"/>
<path d="M83.532 19.4962H82.3647V11.608H79.8354V10.5037H86.0631V11.608H83.532V19.4962Z" fill="white" stroke="white" stroke-width="0.16" stroke-miterlimit="10"/>
<path d="M90.5703 19.4962V10.5037H91.7358V19.4962H90.5703Z" fill="white" stroke="white" stroke-width="0.16" stroke-miterlimit="10"/>
<path d="M96.9016 19.4962H95.7437V11.608H93.2051V10.5037H99.4403V11.608H96.9016V19.4962Z" fill="white" stroke="white" stroke-width="0.16" stroke-miterlimit="10"/>
<path d="M111.231 18.3394C110.338 19.2487 109.231 19.7025 107.911 19.7025C106.583 19.7025 105.476 19.2487 104.583 18.3394C103.691 17.4319 103.247 16.3181 103.247 15C103.247 13.6819 103.691 12.5681 104.583 11.6606C105.476 10.7512 106.583 10.2975 107.911 10.2975C109.224 10.2975 110.33 10.7512 111.224 11.6681C112.123 12.5831 112.567 13.6894 112.567 15C112.567 16.3181 112.123 17.4319 111.231 18.3394ZM105.446 17.5856C106.118 18.2587 106.936 18.5962 107.911 18.5962C108.878 18.5962 109.703 18.2587 110.368 17.5856C111.039 16.9125 111.379 16.0481 111.379 15C111.379 13.9519 111.039 13.0875 110.368 12.4144C109.703 11.7412 108.878 11.4037 107.911 11.4037C106.936 11.4037 106.118 11.7412 105.446 12.4144C104.775 13.0875 104.435 13.9519 104.435 15C104.435 16.0481 104.775 16.9125 105.446 17.5856Z" fill="white" stroke="white" stroke-width="0.16" stroke-miterlimit="10"/>
<path d="M114.204 19.4962V10.5037H115.621L120.026 17.4974H120.077L120.026 15.7687V10.5037H121.191V19.4962H119.975L115.362 12.1574H115.311L115.362 13.8937V19.4962H114.204Z" fill="white" stroke="white" stroke-width="0.16" stroke-miterlimit="10"/>
<path d="M102.96 32.6288C99.4104 32.6288 96.511 35.3101 96.511 39.0095C96.511 42.6788 99.4104 45.3882 102.96 45.3882C106.516 45.3882 109.416 42.6788 109.416 39.0095C109.416 35.3101 106.516 32.6288 102.96 32.6288ZM102.96 42.8757C101.012 42.8757 99.3368 41.2801 99.3368 39.0095C99.3368 36.7088 101.012 35.1413 102.96 35.1413C104.907 35.1413 106.59 36.7088 106.59 39.0095C106.59 41.2801 104.907 42.8757 102.96 42.8757ZM88.8893 32.6288C85.3325 32.6288 82.4407 35.3101 82.4407 39.0095C82.4407 42.6788 85.3325 45.3882 88.8893 45.3882C92.4442 45.3882 95.338 42.6788 95.338 39.0095C95.338 35.3101 92.4442 32.6288 88.8893 32.6288ZM88.8893 42.8757C86.94 42.8757 85.2589 41.2801 85.2589 39.0095C85.2589 36.7088 86.94 35.1413 88.8893 35.1413C90.8368 35.1413 92.5122 36.7088 92.5122 39.0095C92.5122 41.2801 90.8368 42.8757 88.8893 42.8757ZM72.1462 34.5845V37.2957H78.6685C78.4778 38.8107 77.9678 39.9245 77.1858 40.7007C76.2338 41.6382 74.751 42.6788 72.1462 42.6788C68.1323 42.6788 64.9892 39.4632 64.9892 35.4788C64.9892 31.4945 68.1323 28.2788 72.1462 28.2788C74.3166 28.2788 75.8957 29.1207 77.0611 30.212L78.9859 28.3013C77.3558 26.7563 75.1873 25.5695 72.1462 25.5695C66.642 25.5695 62.0161 30.0151 62.0161 35.4788C62.0161 40.9426 66.642 45.3882 72.1462 45.3882C75.1212 45.3882 77.3558 44.4207 79.1124 42.6057C80.9125 40.8188 81.4735 38.3063 81.4735 36.2776C81.4735 35.6476 81.4207 35.0682 81.3262 34.5845H72.1462ZM140.611 36.6863C140.08 35.2595 138.442 32.6288 135.107 32.6288C131.801 32.6288 129.049 35.2145 129.049 39.0095C129.049 42.5832 131.773 45.3882 135.424 45.3882C138.376 45.3882 140.08 43.6013 140.781 42.5607L138.59 41.1113C137.859 42.1726 136.863 42.8757 135.424 42.8757C133.994 42.8757 132.968 42.2251 132.311 40.9426L140.907 37.412L140.611 36.6863ZM131.846 38.8107C131.773 36.3507 133.771 35.0907 135.203 35.0907C136.325 35.0907 137.277 35.6476 137.594 36.4445L131.846 38.8107ZM124.859 45.0001H127.685V26.2501H124.859V45.0001ZM120.232 34.0501H120.137C119.503 33.3038 118.292 32.6288 116.758 32.6288C113.539 32.6288 110.596 35.4338 110.596 39.0301C110.596 42.6057 113.539 45.3882 116.758 45.3882C118.292 45.3882 119.503 44.7076 120.137 43.9388H120.232V44.8538C120.232 47.2932 118.919 48.6038 116.801 48.6038C115.075 48.6038 114.004 47.3663 113.562 46.3257L111.105 47.3438C111.813 49.0351 113.689 51.1163 116.801 51.1163C120.115 51.1163 122.91 49.1813 122.91 44.4732V33.017H120.232V34.0501ZM117 42.8757C115.052 42.8757 113.422 41.2576 113.422 39.0301C113.422 36.782 115.052 35.1413 117 35.1413C118.919 35.1413 120.432 36.782 120.432 39.0301C120.432 41.2576 118.919 42.8757 117 42.8757ZM153.841 26.2501H147.082V45.0001H149.9V37.8957H153.841C156.971 37.8957 160.04 35.6476 160.04 32.072C160.04 28.4982 156.963 26.2501 153.841 26.2501ZM153.914 35.2876H149.9V28.8582H153.914C156.019 28.8582 157.22 30.5926 157.22 32.072C157.22 33.5232 156.019 35.2876 153.914 35.2876ZM171.336 32.5932C169.299 32.5932 167.182 33.4857 166.311 35.4638L168.812 36.5045C169.35 35.4638 170.34 35.1263 171.387 35.1263C172.849 35.1263 174.331 35.9982 174.354 37.5376V37.7345C173.844 37.442 172.752 37.0088 171.409 37.0088C168.716 37.0088 165.971 38.4807 165.971 41.2276C165.971 43.7401 168.177 45.3582 170.657 45.3582C172.554 45.3582 173.6 44.5088 174.258 43.5207H174.354V44.9701H177.076V37.7776C177.076 34.4532 174.575 32.5932 171.336 32.5932ZM170.996 42.8682C170.074 42.8682 168.789 42.4145 168.789 41.2801C168.789 39.8288 170.391 39.272 171.778 39.272C173.019 39.272 173.6 39.5438 174.354 39.902C174.133 41.6382 172.628 42.8682 170.996 42.8682ZM186.993 33.0038L183.753 41.132H183.657L180.308 33.0038H177.269L182.301 44.3626L179.429 50.6832H182.374L190.128 33.0038H186.993ZM161.589 45.0001H164.415V26.2501H161.589V45.0001Z" fill="white"/>
<path d="M15.7686 11.3082C15.3248 11.7694 15.0679 12.4875 15.0679 13.4175V46.59C15.0679 47.52 15.3248 48.2382 15.7686 48.6994L15.8782 48.8007L34.6046 30.2194V29.7807L15.8782 11.1994L15.7686 11.3082Z" fill="url(#paint0_linear_127_214)"/>
<path d="M40.8397 36.4163L34.6045 30.2194V29.7806L40.8473 23.5838L40.987 23.6644L48.3802 27.84C50.49 29.025 50.49 30.975 48.3802 32.1675L40.987 36.3356L40.8397 36.4163Z" fill="url(#paint1_linear_127_214)"/>
<path d="M40.9871 36.3356L34.6046 30L15.7686 48.6993C16.4693 49.4306 17.6121 49.5187 18.9117 48.7875L40.9871 36.3356Z" fill="url(#paint2_linear_127_214)"/>
<path d="M40.9871 23.6644L18.9117 11.2125C17.6121 10.4888 16.4693 10.5769 15.7686 11.3081L34.6046 30L40.9871 23.6644Z" fill="url(#paint3_linear_127_214)"/>
<defs>
<linearGradient id="paint0_linear_127_214" x1="32.942" y1="46.9355" x2="7.76905" y2="21.5761" gradientUnits="userSpaceOnUse">
<stop stop-color="#00A0FF"/>
<stop offset="0.0066" stop-color="#00A1FF"/>
<stop offset="0.2601" stop-color="#00BEFF"/>
<stop offset="0.5122" stop-color="#00D2FF"/>
<stop offset="0.7604" stop-color="#00DFFF"/>
<stop offset="1" stop-color="#00E3FF"/>
</linearGradient>
<linearGradient id="paint1_linear_127_214" x1="51.1276" y1="29.9979" x2="14.5634" y2="29.9979" gradientUnits="userSpaceOnUse">
<stop stop-color="#FFE000"/>
<stop offset="0.4087" stop-color="#FFBD00"/>
<stop offset="0.7754" stop-color="#FFA500"/>
<stop offset="1" stop-color="#FF9C00"/>
</linearGradient>
<linearGradient id="paint2_linear_127_214" x1="37.5165" y1="26.5558" x2="3.37995" y2="-7.83357" gradientUnits="userSpaceOnUse">
<stop stop-color="#FF3A44"/>
<stop offset="1" stop-color="#C31162"/>
</linearGradient>
<linearGradient id="paint3_linear_127_214" x1="11.0271" y1="59.7357" x2="26.2706" y2="44.3794" gradientUnits="userSpaceOnUse">
<stop stop-color="#32A071"/>
<stop offset="0.0685" stop-color="#2DA771"/>
<stop offset="0.4762" stop-color="#15CF74"/>
<stop offset="0.8009" stop-color="#06E775"/>
<stop offset="1" stop-color="#00F076"/>
</linearGradient>
</defs>
</svg>
