<?xml version="1.0" encoding="UTF-8"?>
<svg xmlns="http://www.w3.org/2000/svg" xmlns:xlink="http://www.w3.org/1999/xlink" width="0" height="0">
<symbol id="ChevronRight" width="40" height="40" viewBox="0 0 40 40" fill="none">
<path d="M17 14L23 20L17 26" stroke="black" stroke-linecap="round" stroke-linejoin="round"/>
</symbol>

<symbol id="ArrowRight" width="40" height="40" viewBox="0 0 40 40" fill="none">
<path d="M30 20L10 20M30 20L22.5 12M30 20L22.5 28" stroke="black" stroke-linecap="round" stroke-linejoin="round"/>
</symbol>

<symbol id="Bag" width="40" height="40" viewBox="0 0 40 40" fill="none">
<path d="M15.3333 17.7778V14.4444M24.2222 17.7778V14.4444M15.3333 14.4444H14C12.8954 14.4444 12 15.3399 12 16.4444V28C12 29.1046 12.8954 30 14 30H25.5556C26.6601 30 27.5556 29.1046 27.5556 28V16.4444C27.5556 15.3399 26.6601 14.4444 25.5556 14.4444H24.2222M15.3333 14.4444V13.3333C15.3333 11.4924 16.8257 10 18.6667 10H20.8889C22.7298 10 24.2222 11.4924 24.2222 13.3333V14.4444M15.3333 14.4444H24.2222" stroke="black" stroke-linecap="round" stroke-linejoin="round"/>
</symbol>

<symbol id="User" width="40" height="40" viewBox="0 0 40 40" fill="none">
<path d="M28.7778 26.6667C28.7778 28.5076 24.7981 30 19.8889 30C14.9797 30 11 28.5076 11 26.6667C11 24.8257 14.9797 23.3333 19.8889 23.3333C24.7981 23.3333 28.7778 24.8257 28.7778 26.6667Z" stroke="black"/>
<path d="M24.3333 14.4444C24.3333 16.899 22.3435 18.8889 19.8889 18.8889C17.4343 18.8889 15.4444 16.899 15.4444 14.4444C15.4444 11.9898 17.4343 10 19.8889 10C22.3435 10 24.3333 11.9898 24.3333 14.4444Z" stroke="black"/>
</symbol>

<symbol id="Heart" width="40" height="40" viewBox="0 0 40 40" fill="none">
<path d="M11.5193 11.9837C14.0136 9.25398 17.0068 9.25398 20 12.5297C22.9932 9.25398 25.9864 9.25399 28.4807 11.9837C30.975 14.7135 29.9773 17.9892 28.4807 20.7189C26.9841 23.4486 20 30 20 30C20 30 13.083 23.5711 11.5193 20.7189C10.0227 17.9891 9.02497 14.7135 11.5193 11.9837Z" stroke="black" stroke-linecap="round" stroke-linejoin="round"/>
</symbol>

<symbol id="Search" width="40" height="40" viewBox="0 0 40 40" fill="none">
<path d="M24.1176 24.1176L30 30M26.4706 18.2353C26.4706 22.7835 22.7835 26.4706 18.2353 26.4706C13.6871 26.4706 10 22.7835 10 18.2353C10 13.6871 13.6871 10 18.2353 10C22.7835 10 26.4706 13.6871 26.4706 18.2353Z" stroke="black" stroke-linecap="round" stroke-linejoin="round"/>
</symbol>

<symbol id="Poi" width="40" height="40" viewBox="0 0 40 40" fill="none">
<path fill-rule="evenodd" clip-rule="evenodd" d="M27.5556 17.7778C27.5556 20.9194 23.3952 26.0033 21.16 28.508C20.4147 29.3432 19.1408 29.3432 18.3955 28.508C16.1603 26.0033 12 20.9194 12 17.7778C12 13.4822 15.4822 10 19.7778 10C24.0733 10 27.5556 13.4822 27.5556 17.7778ZM19.7778 21.1111C21.6187 21.1111 23.1111 19.6187 23.1111 17.7778C23.1111 15.9368 21.6187 14.4444 19.7778 14.4444C17.9368 14.4444 16.4444 15.9368 16.4444 17.7778C16.4444 19.6187 17.9368 21.1111 19.7778 21.1111Z" stroke="black" stroke-linecap="round" stroke-linejoin="round"/>
</symbol>

<symbol id="ChevronDown" width="40" height="40" viewBox="0 0 40 40" fill="none">
<path d="M26 17L20 23L14 17" stroke="black" stroke-linecap="round" stroke-linejoin="round"/>
</symbol>

<symbol id="logo" width="144" height="28" viewBox="0 0 144 28" fill="none">
<path d="M25.0891 26H17.6758L10.9962 15.5149V26H2V2.10213H12.7337L21.4983 15.3447L30.2629 2.10213H41.0352V26H32.0389V15.4468L25.0891 26Z" fill="black"/>
<path d="M66.2258 26H58.8126L52.133 15.5149V26H43.1367V2.10213H53.8704L62.635 15.3447L71.3996 2.10213H82.1719V26H73.1757V15.4468L66.2258 26Z" fill="black"/>
<path d="M102.073 19.1915H109.332V26H84.3507V19.1915H93.1925V11.1234C92.7549 11.6681 91.9698 12.1447 90.8372 12.5532C89.7304 12.939 88.6107 13.2227 87.4781 13.4043C86.3713 13.5631 85.3545 13.6426 84.4279 13.6426L84.3507 9.79575L84.2735 6.90213C84.5823 6.87943 84.917 6.85674 85.2773 6.83404C85.6634 6.81135 86.2168 6.75461 86.9376 6.66383C87.684 6.55036 88.3662 6.38014 88.9839 6.15319C89.6274 5.92624 90.2581 5.6539 90.8758 5.33617C91.5193 4.99574 92.0213 4.54184 92.3816 3.97447C92.7678 3.3844 92.9608 2.72624 92.9608 2H102.073V19.1915Z" fill="black"/>
<path d="M125.513 16.3319V11.7702C125.565 11.7702 125.642 11.7816 125.745 11.8043C127.058 11.7816 128.152 11.7362 129.027 11.6681C129.928 11.5773 130.597 11.4525 131.035 11.2936C131.498 11.1121 131.82 10.9191 132 10.7149C132.18 10.5106 132.27 10.261 132.27 9.96596C132.27 8.60426 130.842 7.87802 127.984 7.78723C127.778 7.78723 127.521 7.78723 127.212 7.78723C127.186 7.78723 127.045 7.78723 126.787 7.78723H126.749H126.787C126.787 7.78723 126.736 7.78723 126.633 7.78723C126.53 7.76454 126.44 7.75319 126.363 7.75319C125.256 7.75319 124.329 7.84397 123.583 8.02553C122.836 8.20709 122.309 8.45674 122 8.77447C121.691 9.0922 121.485 9.37589 121.382 9.62553C121.305 9.87518 121.266 10.1589 121.266 10.4766H111.459C111.459 10.0454 111.498 9.62553 111.575 9.21702C111.652 8.78582 111.819 8.28653 112.077 7.71915C112.334 7.15177 112.669 6.61844 113.081 6.11915C113.518 5.61986 114.11 5.12057 114.857 4.62128C115.629 4.09929 116.517 3.66809 117.521 3.32766C118.551 2.96454 119.825 2.6695 121.343 2.44255C122.862 2.2156 124.535 2.10213 126.363 2.10213C127.058 2.10213 127.611 2.10213 128.023 2.10213C128.461 2.10213 129.13 2.12482 130.031 2.17021C130.932 2.2156 131.691 2.28369 132.309 2.37447C132.952 2.46525 133.712 2.60142 134.587 2.78298C135.488 2.94184 136.247 3.1461 136.865 3.39574C137.483 3.6227 138.126 3.92908 138.795 4.31489C139.49 4.70071 140.044 5.14326 140.456 5.64255C140.893 6.11915 141.241 6.69787 141.498 7.37872C141.781 8.05958 141.923 8.80851 141.923 9.62553C141.923 10.1248 141.858 10.6014 141.73 11.0553C141.601 11.4865 141.408 11.895 141.151 12.2809C140.893 12.644 140.546 12.9844 140.108 13.3021C139.696 13.5972 139.207 13.8241 138.641 13.983C139.387 14.1418 140.018 14.4482 140.533 14.9021C141.048 15.356 141.421 15.878 141.653 16.4681C141.884 17.0582 142 17.6823 142 18.3404C142 23.4468 136.916 26 126.749 26C125.848 26 125.114 26 124.548 26C123.982 25.9773 123.107 25.9092 121.923 25.7957C120.739 25.6823 119.735 25.5234 118.911 25.3192C118.113 25.1149 117.199 24.7972 116.17 24.366C115.166 23.9121 114.355 23.3901 113.737 22.8C113.119 22.1872 112.579 21.3929 112.116 20.417C111.678 19.4411 111.459 18.3518 111.459 17.1489H121.266C121.266 17.7617 121.305 18.2383 121.382 18.5787C121.485 18.8965 121.704 19.2142 122.038 19.5319C122.399 19.827 122.952 20.0426 123.699 20.1787C124.445 20.2922 125.462 20.3489 126.749 20.3489C127.341 20.3489 127.92 20.3376 128.486 20.3149C131.009 20.156 132.27 19.4298 132.27 18.1362C132.27 17.7504 132.116 17.4326 131.807 17.183C131.498 16.9333 130.829 16.7291 129.799 16.5702C128.769 16.4113 127.341 16.3319 125.513 16.3319Z" fill="black"/>
</symbol>

</svg>
