<?xml version="1.0" encoding="UTF-8"?>
<svg xmlns="http://www.w3.org/2000/svg" xmlns:xlink="http://www.w3.org/1999/xlink" width="0" height="0">
<symbol id="appstore" width="204" height="60" viewBox="0 0 204 60" fill="none">
<g clip-path="url(#clip0_127_240)">
<path d="M202.867 53.0804C202.867 56.2779 200.27 58.8679 197.057 58.8679H6.95006C3.7394 58.8679 1.1333 56.2779 1.1333 53.0804V6.92712C1.1333 3.73116 3.7394 1.13208 6.95006 1.13208H197.056C200.27 1.13208 202.865 3.73116 202.865 6.92712L202.867 53.0804Z" fill="black"/>
<path d="M196.444 1.20188C199.943 1.20188 202.789 4.02751 202.789 7.50001V52.5C202.789 55.9725 199.943 58.7981 196.444 58.7981H7.55555C4.05733 58.7981 1.21078 55.9725 1.21078 52.5V7.50001C1.21078 4.02751 4.05733 1.20188 7.55555 1.20188H196.444ZM196.444 7.89513e-06H7.55555C3.40189 7.89513e-06 0 3.37688 0 7.50001V52.5C0 56.6231 3.40189 60 7.55555 60H196.444C200.598 60 204 56.6231 204 52.5V7.50001C204 3.37688 200.598 7.89513e-06 196.444 7.89513e-06Z" fill="#A6A6A6"/>
<path d="M45.5264 29.6759C45.4825 24.8414 49.5142 22.4894 49.6985 22.3799C47.4152 19.0754 43.8762 18.6239 42.6326 18.5879C39.6602 18.2774 36.777 20.3534 35.2629 20.3534C33.7185 20.3534 31.3869 18.6179 28.8739 18.6689C25.6401 18.7184 22.6149 20.5769 20.9557 23.4629C17.5315 29.3474 20.0853 37.9949 23.3659 42.7514C25.007 45.0809 26.9246 47.6819 29.4345 47.5904C31.8901 47.4899 32.8073 46.0364 35.7706 46.0364C38.7067 46.0364 39.568 47.5904 42.1279 47.5319C44.7632 47.4899 46.4224 45.1919 48.0061 42.8414C49.9025 40.1714 50.6641 37.5419 50.6944 37.4069C50.6324 37.3859 45.5762 35.4704 45.5264 29.6759Z" fill="white"/>
<path d="M40.6908 15.4589C42.0115 13.8194 42.9152 11.5889 42.6643 9.32544C40.7528 9.40944 38.3622 10.6379 36.9856 12.2414C35.7676 13.6544 34.6796 15.9704 34.9607 18.1484C37.108 18.3074 39.3127 17.0729 40.6908 15.4589Z" fill="white"/>
<path d="M81.0638 47.2559H77.632L75.7522 41.3924H69.2182L67.4275 47.2559H64.0864L70.56 27.2939H74.5584L81.0638 47.2559ZM75.1855 38.9324L73.4855 33.7199C73.3057 33.1874 72.9687 31.9334 72.4716 29.9594H72.4111C72.2132 30.8084 71.8943 32.0624 71.4561 33.7199L69.7863 38.9324H75.1855Z" fill="white"/>
<path d="M97.7117 39.8819C97.7117 42.3299 97.0453 44.2649 95.7125 45.6854C94.5188 46.9499 93.0364 47.5814 91.2668 47.5814C89.3568 47.5814 87.9847 46.9004 87.1491 45.5384H87.0886V53.1209H83.8669V37.6004C83.8669 36.0614 83.8261 34.4819 83.7476 32.8619H86.5809L86.7607 35.1434H86.8212C87.8956 33.4244 89.526 32.5664 91.7141 32.5664C93.4247 32.5664 94.8527 33.2369 95.9951 34.5794C97.1405 35.9234 97.7117 37.6904 97.7117 39.8819ZM94.4296 39.9989C94.4296 38.5979 94.1123 37.4429 93.4746 36.5339C92.778 35.5859 91.8426 35.1119 90.67 35.1119C89.8751 35.1119 89.1528 35.3759 88.5076 35.8964C87.8608 36.4214 87.4377 37.1069 87.2397 37.9559C87.14 38.3519 87.0901 38.6759 87.0901 38.9309V41.3309C87.0901 42.3779 87.4135 43.2614 88.0603 43.9829C88.707 44.7044 89.5472 45.0644 90.5808 45.0644C91.7942 45.0644 92.7387 44.5994 93.4141 43.6724C94.0911 42.7439 94.4296 41.5199 94.4296 39.9989Z" fill="white"/>
<path d="M114.39 39.8819C114.39 42.3299 113.724 44.2649 112.389 45.6854C111.197 46.9499 109.715 47.5814 107.945 47.5814C106.035 47.5814 104.663 46.9004 103.829 45.5384H103.768V53.1209H100.547V37.6004C100.547 36.0614 100.506 34.4819 100.427 32.8619H103.261L103.44 35.1434H103.501C104.574 33.4244 106.204 32.5664 108.394 32.5664C110.103 32.5664 111.531 33.2369 112.676 34.5794C113.817 35.9234 114.39 37.6904 114.39 39.8819ZM111.108 39.9989C111.108 38.5979 110.789 37.4429 110.151 36.5339C109.455 35.5859 108.522 35.1119 107.348 35.1119C106.552 35.1119 105.831 35.3759 105.184 35.8964C104.537 36.4214 104.116 37.1069 103.918 37.9559C103.82 38.3519 103.768 38.6759 103.768 38.9309V41.3309C103.768 42.3779 104.092 43.2614 104.735 43.9829C105.382 44.7029 106.222 45.0644 107.259 45.0644C108.472 45.0644 109.417 44.5994 110.092 43.6724C110.769 42.7439 111.108 41.5199 111.108 39.9989Z" fill="white"/>
<path d="M133.037 41.658C133.037 43.356 132.443 44.7375 131.251 45.804C129.941 46.9695 128.117 47.5515 125.773 47.5515C123.609 47.5515 121.874 47.1375 120.561 46.308L121.308 43.6425C122.722 44.4915 124.274 44.9175 125.965 44.9175C127.178 44.9175 128.123 44.6445 128.801 44.1015C129.477 43.5585 129.814 42.8295 129.814 41.9205C129.814 41.1105 129.536 40.428 128.978 39.8745C128.423 39.321 127.497 38.8065 126.204 38.331C122.683 37.0275 120.924 35.118 120.924 32.607C120.924 30.966 121.54 29.6205 122.775 28.5735C124.005 27.525 125.646 27.0015 127.698 27.0015C129.528 27.0015 131.048 27.318 132.262 27.9495L131.456 30.5565C130.323 29.9445 129.041 29.6385 127.607 29.6385C126.474 29.6385 125.589 29.916 124.954 30.468C124.417 30.9615 124.148 31.563 124.148 32.2755C124.148 33.0645 124.455 33.717 125.072 34.23C125.608 34.704 126.583 35.217 127.997 35.7705C129.727 36.462 130.998 37.2705 131.816 38.1975C132.63 39.1215 133.037 40.278 133.037 41.658Z" fill="white"/>
<path d="M143.689 35.2619H140.138V42.2504C140.138 44.0279 140.763 44.9159 142.018 44.9159C142.593 44.9159 143.071 44.8664 143.449 44.7674L143.538 47.1959C142.903 47.4314 142.067 47.5499 141.032 47.5499C139.76 47.5499 138.766 47.1644 138.048 46.3949C137.333 45.6239 136.973 44.3309 136.973 42.5144V35.2589H134.858V32.8589H136.973V30.2234L140.138 29.2754V32.8589H143.689V35.2619Z" fill="white"/>
<path d="M159.711 39.9404C159.711 42.1529 159.073 43.9694 157.801 45.3899C156.466 46.8524 154.695 47.5814 152.488 47.5814C150.36 47.5814 148.666 46.8809 147.403 45.4799C146.139 44.0789 145.508 42.3104 145.508 40.1789C145.508 37.9484 146.158 36.1214 147.462 34.7009C148.763 33.2789 150.519 32.5679 152.726 32.5679C154.854 32.5679 156.566 33.2684 157.858 34.6709C159.094 36.0314 159.711 37.7879 159.711 39.9404ZM156.368 40.0439C156.368 38.7164 156.083 37.5779 155.504 36.6284C154.828 35.4794 153.863 34.9064 152.612 34.9064C151.317 34.9064 150.333 35.4809 149.657 36.6284C149.079 37.5794 148.793 38.7359 148.793 40.1039C148.793 41.4314 149.079 42.5699 149.657 43.5179C150.354 44.6669 151.327 45.2399 152.583 45.2399C153.813 45.2399 154.778 44.6549 155.475 43.4879C156.069 42.5204 156.368 41.3699 156.368 40.0439Z" fill="white"/>
<path d="M170.183 35.6744C169.864 35.6159 169.524 35.5859 169.167 35.5859C168.034 35.5859 167.158 36.0104 166.541 36.8609C166.005 37.6109 165.736 38.5589 165.736 39.7034V47.2559H162.515L162.546 37.3949C162.546 35.7359 162.505 34.2254 162.425 32.8634H165.231L165.349 35.6174H165.438C165.778 34.6709 166.314 33.9089 167.049 33.3374C167.767 32.8229 168.542 32.5664 169.377 32.5664C169.675 32.5664 169.944 32.5874 170.183 32.6249V35.6744Z" fill="white"/>
<path d="M184.591 39.3781C184.591 39.9511 184.554 40.434 184.473 40.8285H174.808C174.846 42.2505 175.313 43.338 176.211 44.088C177.025 44.7585 178.078 45.0945 179.372 45.0945C180.803 45.0945 182.109 44.868 183.283 44.4135L183.787 46.6335C182.415 47.2275 180.795 47.523 178.926 47.523C176.678 47.523 174.913 46.866 173.628 45.5535C172.347 44.241 171.705 42.4785 171.705 40.2675C171.705 38.097 172.301 36.2895 173.497 34.848C174.748 33.3091 176.439 32.5396 178.567 32.5396C180.656 32.5396 182.239 33.3091 183.313 34.848C184.164 36.0705 184.591 37.5826 184.591 39.3781ZM181.519 38.5485C181.54 37.6005 181.33 36.7815 180.894 36.09C180.336 35.2005 179.479 34.7565 178.326 34.7565C177.273 34.7565 176.416 35.1901 175.762 36.0601C175.225 36.7516 174.907 37.581 174.808 38.547H181.519V38.5485Z" fill="white"/>
<path d="M74.1197 15.0135C74.1197 16.779 73.5863 18.108 72.521 19.0005C71.5342 19.824 70.1319 20.2365 68.3156 20.2365C67.4149 20.2365 66.6443 20.1975 65.999 20.1195V10.473C66.8407 10.338 67.7474 10.269 68.7266 10.269C70.4568 10.269 71.7609 10.6425 72.6404 11.3895C73.6256 12.234 74.1197 13.4415 74.1197 15.0135ZM72.45 15.057C72.45 13.9125 72.1447 13.035 71.5342 12.423C70.9237 11.8125 70.0322 11.5065 68.8581 11.5065C68.3594 11.5065 67.9348 11.5395 67.5827 11.6085V18.942C67.7776 18.972 68.1342 18.9855 68.6525 18.9855C69.8645 18.9855 70.7998 18.651 71.4587 17.982C72.1175 17.313 72.45 16.338 72.45 15.057Z" fill="white"/>
<path d="M82.9734 16.5556C82.9734 17.6431 82.6606 18.5341 82.035 19.2331C81.3792 19.9516 80.5103 20.3101 79.4253 20.3101C78.3796 20.3101 77.547 19.9666 76.9259 19.2766C76.3064 18.5881 75.9966 17.7196 75.9966 16.6726C75.9966 15.5776 76.3154 14.6791 76.9561 13.9816C77.5968 13.2841 78.4582 12.9346 79.5432 12.9346C80.5889 12.9346 81.429 13.2781 82.0652 13.9666C82.6697 14.6356 82.9734 15.4996 82.9734 16.5556ZM81.3308 16.6066C81.3308 15.9541 81.1888 15.3946 80.9062 14.9281C80.5737 14.3641 80.1008 14.0821 79.4857 14.0821C78.8496 14.0821 78.366 14.3641 78.0336 14.9281C77.7495 15.3946 77.6089 15.9631 77.6089 16.6351C77.6089 17.2876 77.751 17.8471 78.0336 18.3136C78.3766 18.8776 78.8541 19.1596 79.4706 19.1596C80.0751 19.1596 80.5496 18.8731 80.8911 18.2986C81.1842 17.8231 81.3308 17.2591 81.3308 16.6066Z" fill="white"/>
<path d="M94.8448 13.0786L92.6159 20.1496H91.1653L90.242 17.0791C90.0077 16.3126 89.8173 15.5506 89.6693 14.7946H89.6405C89.503 15.5716 89.3126 16.3321 89.0678 17.0791L88.0871 20.1496H86.6198L84.5239 13.0786H86.1514L86.9568 16.4401C87.1517 17.2351 87.3119 17.9926 87.4404 18.7096H87.4691C87.5869 18.1186 87.7819 17.3656 88.0569 16.4551L89.0678 13.0801H90.3583L91.3269 16.3831C91.5612 17.1886 91.7516 17.9641 91.8981 18.7111H91.942C92.0493 17.9836 92.2109 17.2081 92.4255 16.3831L93.2899 13.0801H94.8448V13.0786Z" fill="white"/>
<path d="M103.055 20.1497H101.471V16.0997C101.471 14.8517 100.994 14.2277 100.036 14.2277C99.5658 14.2277 99.1865 14.3987 98.8918 14.7422C98.6002 15.0857 98.4521 15.4907 98.4521 15.9542V20.1482H96.8684V15.0992C96.8684 14.4782 96.8488 13.8047 96.811 13.0757H98.2028L98.2768 14.1812H98.3206C98.505 13.8377 98.78 13.5542 99.1412 13.3277C99.5703 13.0637 100.051 12.9302 100.577 12.9302C101.242 12.9302 101.795 13.1432 102.234 13.5707C102.781 14.0942 103.055 14.8757 103.055 15.9137V20.1497Z" fill="white"/>
<path d="M107.421 20.1495H105.839V9.83398H107.421V20.1495Z" fill="white"/>
<path d="M116.745 16.5556C116.745 17.6431 116.433 18.5341 115.807 19.2331C115.151 19.9516 114.281 20.3101 113.197 20.3101C112.15 20.3101 111.317 19.9666 110.698 19.2766C110.078 18.5881 109.769 17.7196 109.769 16.6726C109.769 15.5776 110.087 14.6791 110.728 13.9816C111.369 13.2841 112.23 12.9346 113.314 12.9346C114.361 12.9346 115.199 13.2781 115.837 13.9666C116.442 14.6356 116.745 15.4996 116.745 16.5556ZM115.101 16.6066C115.101 15.9541 114.959 15.3946 114.677 14.9281C114.346 14.3641 113.871 14.0821 113.258 14.0821C112.62 14.0821 112.136 14.3641 111.806 14.9281C111.521 15.3946 111.381 15.9631 111.381 16.6351C111.381 17.2876 111.523 17.8471 111.806 18.3136C112.149 18.8776 112.626 19.1596 113.243 19.1596C113.847 19.1596 114.32 18.8731 114.662 18.2986C114.956 17.8231 115.101 17.2591 115.101 16.6066Z" fill="white"/>
<path d="M124.41 20.1496H122.988L122.87 19.3351H122.826C122.339 19.9846 121.646 20.3101 120.745 20.3101C120.073 20.3101 119.529 20.0956 119.119 19.6696C118.747 19.2826 118.562 18.8011 118.562 18.2296C118.562 17.3656 118.924 16.7071 119.654 16.2511C120.382 15.7951 121.407 15.5716 122.726 15.5821V15.4501C122.726 14.5186 122.234 14.0536 121.247 14.0536C120.544 14.0536 119.925 14.2291 119.39 14.5771L119.068 13.5451C119.73 13.1386 120.547 12.9346 121.511 12.9346C123.373 12.9346 124.307 13.9096 124.307 15.8596V18.4636C124.307 19.1701 124.342 19.7326 124.41 20.1496ZM122.765 17.7196V16.6291C121.019 16.5991 120.145 17.0746 120.145 18.0541C120.145 18.4231 120.245 18.6991 120.449 18.8836C120.653 19.0681 120.913 19.1596 121.223 19.1596C121.57 19.1596 121.895 19.0501 122.191 18.8326C122.489 18.6136 122.672 18.3361 122.74 17.9956C122.756 17.9191 122.765 17.8261 122.765 17.7196Z" fill="white"/>
<path d="M133.408 20.1495H132.003L131.929 19.014H131.885C131.436 19.878 130.672 20.31 129.597 20.31C128.739 20.31 128.024 19.9755 127.458 19.3065C126.891 18.6375 126.608 17.769 126.608 16.7025C126.608 15.558 126.915 14.631 127.532 13.923C128.129 13.263 128.86 12.933 129.73 12.933C130.687 12.933 131.356 13.2525 131.737 13.893H131.767V9.83398H133.352V18.2445C133.352 18.933 133.371 19.5675 133.408 20.1495ZM131.767 17.1675V15.9885C131.767 15.7845 131.752 15.6195 131.723 15.4935C131.634 15.1155 131.442 14.7975 131.151 14.541C130.856 14.2845 130.501 14.1555 130.091 14.1555C129.501 14.1555 129.038 14.388 128.698 14.8545C128.361 15.321 128.191 15.9165 128.191 16.644C128.191 17.343 128.352 17.91 128.677 18.3465C129.02 18.8115 129.483 19.044 130.061 19.044C130.581 19.044 130.997 18.8505 131.312 18.462C131.618 18.1035 131.767 17.6715 131.767 17.1675Z" fill="white"/>
<path d="M146.952 16.5556C146.952 17.6431 146.64 18.5341 146.014 19.2331C145.358 19.9516 144.491 20.3101 143.404 20.3101C142.36 20.3101 141.528 19.9666 140.905 19.2766C140.285 18.5881 139.976 17.7196 139.976 16.6726C139.976 15.5776 140.294 14.6791 140.935 13.9816C141.576 13.2841 142.437 12.9346 143.524 12.9346C144.568 12.9346 145.41 13.2781 146.044 13.9666C146.649 14.6356 146.952 15.4996 146.952 16.5556ZM145.311 16.6066C145.311 15.9541 145.169 15.3946 144.887 14.9281C144.553 14.3641 144.081 14.0821 143.465 14.0821C142.83 14.0821 142.347 14.3641 142.013 14.9281C141.728 15.3946 141.588 15.9631 141.588 16.6351C141.588 17.2876 141.73 17.8471 142.013 18.3136C142.356 18.8776 142.833 19.1596 143.45 19.1596C144.054 19.1596 144.53 18.8731 144.872 18.2986C145.163 17.8231 145.311 17.2591 145.311 16.6066Z" fill="white"/>
<path d="M155.467 20.1497H153.885V16.0997C153.885 14.8517 153.408 14.2277 152.448 14.2277C151.978 14.2277 151.599 14.3987 151.306 14.7422C151.013 15.0857 150.866 15.4907 150.866 15.9542V20.1482H149.281V15.0992C149.281 14.4782 149.263 13.8047 149.225 13.0757H150.615L150.689 14.1812H150.733C150.919 13.8377 151.194 13.5542 151.554 13.3277C151.984 13.0637 152.463 12.9302 152.991 12.9302C153.654 12.9302 154.207 13.1432 154.647 13.5707C155.195 14.0942 155.467 14.8757 155.467 15.9137V20.1497Z" fill="white"/>
<path d="M166.125 14.2559H164.382V17.6909C164.382 18.5639 164.691 19.0004 165.305 19.0004C165.589 19.0004 165.825 18.9764 166.011 18.9269L166.051 20.1194C165.739 20.2364 165.328 20.2949 164.821 20.2949C164.196 20.2949 163.709 20.1059 163.357 19.7279C163.004 19.3499 162.828 18.7139 162.828 17.8214V14.2559H161.787V13.0784H162.828V11.7824L164.38 11.3174V13.0769H166.124V14.2559H166.125Z" fill="white"/>
<path d="M174.509 20.1495H172.924V16.1295C172.924 14.862 172.447 14.2275 171.49 14.2275C170.756 14.2275 170.254 14.595 169.979 15.33C169.932 15.4845 169.905 15.6735 169.905 15.8955V20.148H168.323V9.83398H169.905V14.0955H169.935C170.434 13.32 171.149 12.933 172.075 12.933C172.731 12.933 173.273 13.146 173.704 13.5735C174.24 14.106 174.509 14.898 174.509 15.945V20.1495Z" fill="white"/>
<path d="M183.157 16.2794C183.157 16.5614 183.136 16.7984 183.098 16.9919H178.348C178.37 17.6909 178.596 18.2234 179.036 18.5924C179.438 18.9224 179.956 19.0874 180.591 19.0874C181.294 19.0874 181.934 18.9764 182.512 18.7529L182.759 19.8449C182.084 20.1359 181.289 20.2814 180.369 20.2814C179.266 20.2814 178.397 19.9589 177.768 19.3139C177.137 18.6689 176.824 17.8034 176.824 16.7174C176.824 15.6509 177.115 14.7629 177.703 14.0549C178.317 13.2989 179.146 12.9209 180.194 12.9209C181.218 12.9209 181.996 13.2989 182.522 14.0549C182.947 14.6549 183.157 15.3974 183.157 16.2794ZM181.646 15.8729C181.658 15.4064 181.554 15.0044 181.339 14.6654C181.064 14.2289 180.645 14.0099 180.079 14.0099C179.562 14.0099 179.14 14.2229 178.818 14.6504C178.555 14.9909 178.4 15.3974 178.348 15.8729H181.646Z" fill="white"/>
</g>
<defs>
<clipPath>
<rect width="204" height="60" fill="white"/>
</clipPath>
</defs>
</symbol>


<symbol id="googleplay" width="204" height="60" viewBox="0 0 204 60" fill="none">
<path d="M196.444 60H7.55556C3.40189 60 0 56.6231 0 52.5V7.5C0 3.37688 3.40189 3.17096e-06 7.55556 3.17096e-06H196.444C200.598 3.17096e-06 204 3.37688 204 7.5V52.5C204 56.6231 200.598 60 196.444 60Z" fill="black"/>
<path d="M196.444 1.20187C199.943 1.20187 202.789 4.0275 202.789 7.5V52.5C202.789 55.9725 199.943 58.7981 196.444 58.7981H7.55556C4.05733 58.7981 1.21078 55.9725 1.21078 52.5V7.5C1.21078 4.0275 4.05733 1.20187 7.55556 1.20187H196.444ZM196.444 3.17096e-06H7.55556C3.40189 3.17096e-06 0 3.37688 0 7.5V52.5C0 56.6231 3.40189 60 7.55556 60H196.444C200.598 60 204 56.6231 204 52.5V7.5C204 3.37688 200.598 3.17096e-06 196.444 3.17096e-06Z" fill="#A6A6A6"/>
<path d="M71.6532 15.3656C71.6532 16.6181 71.2754 17.6212 70.5312 18.3694C69.6755 19.2562 68.5611 19.7025 67.1954 19.7025C65.8902 19.7025 64.7757 19.2487 63.8615 18.3544C62.9454 17.4469 62.4883 16.3331 62.4883 15C62.4883 13.6669 62.9454 12.5531 63.8615 11.6531C64.7757 10.7512 65.8902 10.2975 67.1954 10.2975C67.8452 10.2975 68.4647 10.4306 69.0559 10.6781C69.6453 10.9275 70.1251 11.265 70.4726 11.6812L69.6831 12.4725C69.0767 11.7619 68.2513 11.4112 67.1954 11.4112C66.2434 11.4112 65.4179 11.7412 64.7172 12.4069C64.0239 13.0744 63.6764 13.9387 63.6764 15C63.6764 16.0612 64.0239 16.9331 64.7172 17.6006C65.4179 18.2587 66.2434 18.5962 67.1954 18.5962C68.206 18.5962 69.056 18.2587 69.7265 17.5931C70.1685 17.1525 70.4197 16.545 70.4858 15.7687H67.1954V14.685H71.5852C71.6381 14.9194 71.6532 15.1462 71.6532 15.3656Z" fill="white" stroke="white" stroke-width="0.16" stroke-miterlimit="10"/>
<path d="M78.617 11.608H74.4935V14.458H78.2108V15.5418H74.4935V18.3918H78.617V19.4962H73.3262V10.5037H78.617V11.608Z" fill="white" stroke="white" stroke-width="0.16" stroke-miterlimit="10"/>
<path d="M83.532 19.4962H82.3647V11.608H79.8354V10.5037H86.0631V11.608H83.532V19.4962Z" fill="white" stroke="white" stroke-width="0.16" stroke-miterlimit="10"/>
<path d="M90.5703 19.4962V10.5037H91.7358V19.4962H90.5703Z" fill="white" stroke="white" stroke-width="0.16" stroke-miterlimit="10"/>
<path d="M96.9016 19.4962H95.7437V11.608H93.2051V10.5037H99.4403V11.608H96.9016V19.4962Z" fill="white" stroke="white" stroke-width="0.16" stroke-miterlimit="10"/>
<path d="M111.231 18.3394C110.338 19.2487 109.231 19.7025 107.911 19.7025C106.583 19.7025 105.476 19.2487 104.583 18.3394C103.691 17.4319 103.247 16.3181 103.247 15C103.247 13.6819 103.691 12.5681 104.583 11.6606C105.476 10.7512 106.583 10.2975 107.911 10.2975C109.224 10.2975 110.33 10.7512 111.224 11.6681C112.123 12.5831 112.567 13.6894 112.567 15C112.567 16.3181 112.123 17.4319 111.231 18.3394ZM105.446 17.5856C106.118 18.2587 106.936 18.5962 107.911 18.5962C108.878 18.5962 109.703 18.2587 110.368 17.5856C111.039 16.9125 111.379 16.0481 111.379 15C111.379 13.9519 111.039 13.0875 110.368 12.4144C109.703 11.7412 108.878 11.4037 107.911 11.4037C106.936 11.4037 106.118 11.7412 105.446 12.4144C104.775 13.0875 104.435 13.9519 104.435 15C104.435 16.0481 104.775 16.9125 105.446 17.5856Z" fill="white" stroke="white" stroke-width="0.16" stroke-miterlimit="10"/>
<path d="M114.204 19.4962V10.5037H115.621L120.026 17.4974H120.077L120.026 15.7687V10.5037H121.191V19.4962H119.975L115.362 12.1574H115.311L115.362 13.8937V19.4962H114.204Z" fill="white" stroke="white" stroke-width="0.16" stroke-miterlimit="10"/>
<path d="M102.96 32.6288C99.4104 32.6288 96.511 35.3101 96.511 39.0095C96.511 42.6788 99.4104 45.3882 102.96 45.3882C106.516 45.3882 109.416 42.6788 109.416 39.0095C109.416 35.3101 106.516 32.6288 102.96 32.6288ZM102.96 42.8757C101.012 42.8757 99.3368 41.2801 99.3368 39.0095C99.3368 36.7088 101.012 35.1413 102.96 35.1413C104.907 35.1413 106.59 36.7088 106.59 39.0095C106.59 41.2801 104.907 42.8757 102.96 42.8757ZM88.8893 32.6288C85.3325 32.6288 82.4407 35.3101 82.4407 39.0095C82.4407 42.6788 85.3325 45.3882 88.8893 45.3882C92.4442 45.3882 95.338 42.6788 95.338 39.0095C95.338 35.3101 92.4442 32.6288 88.8893 32.6288ZM88.8893 42.8757C86.94 42.8757 85.2589 41.2801 85.2589 39.0095C85.2589 36.7088 86.94 35.1413 88.8893 35.1413C90.8368 35.1413 92.5122 36.7088 92.5122 39.0095C92.5122 41.2801 90.8368 42.8757 88.8893 42.8757ZM72.1462 34.5845V37.2957H78.6685C78.4778 38.8107 77.9678 39.9245 77.1858 40.7007C76.2338 41.6382 74.751 42.6788 72.1462 42.6788C68.1323 42.6788 64.9892 39.4632 64.9892 35.4788C64.9892 31.4945 68.1323 28.2788 72.1462 28.2788C74.3166 28.2788 75.8957 29.1207 77.0611 30.212L78.9859 28.3013C77.3558 26.7563 75.1873 25.5695 72.1462 25.5695C66.642 25.5695 62.0161 30.0151 62.0161 35.4788C62.0161 40.9426 66.642 45.3882 72.1462 45.3882C75.1212 45.3882 77.3558 44.4207 79.1124 42.6057C80.9125 40.8188 81.4735 38.3063 81.4735 36.2776C81.4735 35.6476 81.4207 35.0682 81.3262 34.5845H72.1462ZM140.611 36.6863C140.08 35.2595 138.442 32.6288 135.107 32.6288C131.801 32.6288 129.049 35.2145 129.049 39.0095C129.049 42.5832 131.773 45.3882 135.424 45.3882C138.376 45.3882 140.08 43.6013 140.781 42.5607L138.59 41.1113C137.859 42.1726 136.863 42.8757 135.424 42.8757C133.994 42.8757 132.968 42.2251 132.311 40.9426L140.907 37.412L140.611 36.6863ZM131.846 38.8107C131.773 36.3507 133.771 35.0907 135.203 35.0907C136.325 35.0907 137.277 35.6476 137.594 36.4445L131.846 38.8107ZM124.859 45.0001H127.685V26.2501H124.859V45.0001ZM120.232 34.0501H120.137C119.503 33.3038 118.292 32.6288 116.758 32.6288C113.539 32.6288 110.596 35.4338 110.596 39.0301C110.596 42.6057 113.539 45.3882 116.758 45.3882C118.292 45.3882 119.503 44.7076 120.137 43.9388H120.232V44.8538C120.232 47.2932 118.919 48.6038 116.801 48.6038C115.075 48.6038 114.004 47.3663 113.562 46.3257L111.105 47.3438C111.813 49.0351 113.689 51.1163 116.801 51.1163C120.115 51.1163 122.91 49.1813 122.91 44.4732V33.017H120.232V34.0501ZM117 42.8757C115.052 42.8757 113.422 41.2576 113.422 39.0301C113.422 36.782 115.052 35.1413 117 35.1413C118.919 35.1413 120.432 36.782 120.432 39.0301C120.432 41.2576 118.919 42.8757 117 42.8757ZM153.841 26.2501H147.082V45.0001H149.9V37.8957H153.841C156.971 37.8957 160.04 35.6476 160.04 32.072C160.04 28.4982 156.963 26.2501 153.841 26.2501ZM153.914 35.2876H149.9V28.8582H153.914C156.019 28.8582 157.22 30.5926 157.22 32.072C157.22 33.5232 156.019 35.2876 153.914 35.2876ZM171.336 32.5932C169.299 32.5932 167.182 33.4857 166.311 35.4638L168.812 36.5045C169.35 35.4638 170.34 35.1263 171.387 35.1263C172.849 35.1263 174.331 35.9982 174.354 37.5376V37.7345C173.844 37.442 172.752 37.0088 171.409 37.0088C168.716 37.0088 165.971 38.4807 165.971 41.2276C165.971 43.7401 168.177 45.3582 170.657 45.3582C172.554 45.3582 173.6 44.5088 174.258 43.5207H174.354V44.9701H177.076V37.7776C177.076 34.4532 174.575 32.5932 171.336 32.5932ZM170.996 42.8682C170.074 42.8682 168.789 42.4145 168.789 41.2801C168.789 39.8288 170.391 39.272 171.778 39.272C173.019 39.272 173.6 39.5438 174.354 39.902C174.133 41.6382 172.628 42.8682 170.996 42.8682ZM186.993 33.0038L183.753 41.132H183.657L180.308 33.0038H177.269L182.301 44.3626L179.429 50.6832H182.374L190.128 33.0038H186.993ZM161.589 45.0001H164.415V26.2501H161.589V45.0001Z" fill="white"/>
<path d="M15.7686 11.3082C15.3248 11.7694 15.0679 12.4875 15.0679 13.4175V46.59C15.0679 47.52 15.3248 48.2382 15.7686 48.6994L15.8782 48.8007L34.6046 30.2194V29.7807L15.8782 11.1994L15.7686 11.3082Z" fill="url(#paint0_linear_127_214)"/>
<path d="M40.8397 36.4163L34.6045 30.2194V29.7806L40.8473 23.5838L40.987 23.6644L48.3802 27.84C50.49 29.025 50.49 30.975 48.3802 32.1675L40.987 36.3356L40.8397 36.4163Z" fill="url(#paint1_linear_127_214)"/>
<path d="M40.9871 36.3356L34.6046 30L15.7686 48.6993C16.4693 49.4306 17.6121 49.5187 18.9117 48.7875L40.9871 36.3356Z" fill="url(#paint2_linear_127_214)"/>
<path d="M40.9871 23.6644L18.9117 11.2125C17.6121 10.4888 16.4693 10.5769 15.7686 11.3081L34.6046 30L40.9871 23.6644Z" fill="url(#paint3_linear_127_214)"/>
<defs>
<linearGradient x1="32.942" y1="46.9355" x2="7.76905" y2="21.5761" gradientUnits="userSpaceOnUse">
<stop stop-color="#00A0FF"/>
<stop offset="0.0066" stop-color="#00A1FF"/>
<stop offset="0.2601" stop-color="#00BEFF"/>
<stop offset="0.5122" stop-color="#00D2FF"/>
<stop offset="0.7604" stop-color="#00DFFF"/>
<stop offset="1" stop-color="#00E3FF"/>
</linearGradient>
<linearGradient id="paint1_linear_127_214" x1="51.1276" y1="29.9979" x2="14.5634" y2="29.9979" gradientUnits="userSpaceOnUse">
<stop stop-color="#FFE000"/>
<stop offset="0.4087" stop-color="#FFBD00"/>
<stop offset="0.7754" stop-color="#FFA500"/>
<stop offset="1" stop-color="#FF9C00"/>
</linearGradient>
<linearGradient id="paint2_linear_127_214" x1="37.5165" y1="26.5558" x2="3.37995" y2="-7.83357" gradientUnits="userSpaceOnUse">
<stop stop-color="#FF3A44"/>
<stop offset="1" stop-color="#C31162"/>
</linearGradient>
<linearGradient id="paint3_linear_127_214" x1="11.0271" y1="59.7357" x2="26.2706" y2="44.3794" gradientUnits="userSpaceOnUse">
<stop stop-color="#32A071"/>
<stop offset="0.0685" stop-color="#2DA771"/>
<stop offset="0.4762" stop-color="#15CF74"/>
<stop offset="0.8009" stop-color="#06E775"/>
<stop offset="1" stop-color="#00F076"/>
</linearGradient>
</defs>
</symbol>

<symbol id="appgallery" width="204" height="60" viewBox="0 0 204 60" fill="none">
<path d="M189.6 0H14.4403C13.8692 0 13.3389 0 12.7678 0C12.3191 0 11.8296 0 11.3809 0C10.3611 0.0400534 9.34133 0.0801068 8.36233 0.280374C7.34253 0.440587 6.40432 0.761015 5.5069 1.2016C4.60948 1.64219 3.79364 2.24299 3.05939 2.96395C2.32513 3.68491 1.75404 4.48598 1.26454 5.36716C0.775035 6.28838 0.489497 7.20961 0.32633 8.17089C0.163162 9.17223 0.0815737 10.1335 0.0407819 11.1348C0.0407819 11.5754 0.0407918 12.0561 0 12.4967C0 13.0174 0 13.5781 0 14.0988V45.9012C0 46.4619 0 46.9826 0 47.5033C0 47.9439 -9.95955e-06 48.4246 0.0407819 48.8652C0.0815737 49.8665 0.122371 50.8678 0.32633 51.8291C0.489497 52.8304 0.815827 53.7517 1.26454 54.6328C1.71325 55.514 2.32513 56.3151 3.05939 57.036C3.79364 57.757 4.60948 58.3178 5.5069 58.7984C6.44511 59.279 7.38332 59.5594 8.36233 59.7196C9.38212 59.8798 10.4019 59.9599 11.3809 60C11.8296 60 12.3191 60 12.7678 60C13.3389 60 13.8692 60 14.4403 60H189.6C190.131 60 190.702 60 191.232 60C191.681 60 192.17 60 192.619 60C193.639 59.9599 194.659 59.9199 195.638 59.7196C196.657 59.5594 197.596 59.239 198.534 58.7984C199.431 58.3578 200.247 57.757 200.981 57.036C201.716 56.3551 202.287 55.514 202.776 54.6328C203.225 53.7517 203.551 52.7904 203.714 51.8291C203.918 50.8278 203.959 49.8665 204 48.8652C204 48.4246 204 47.9439 204 47.5033C204 46.9826 204 46.4219 204 45.9012V14.1389C204 13.5781 204 13.0574 204 12.5367C204 12.0961 204 11.6155 204 11.1749C203.959 10.1736 203.918 9.17223 203.714 8.21095C203.551 7.20961 203.225 6.28838 202.776 5.40721C202.328 4.52603 201.716 3.72497 200.981 3.00401C200.288 2.28304 199.431 1.7223 198.534 1.24166C197.596 0.801068 196.657 0.480641 195.638 0.320427C194.659 0.160214 193.639 0.0801068 192.619 0.0400534C192.17 0.0400534 191.681 0.0400534 191.232 0.0400534C190.702 0 190.172 0 189.6 0Z" fill="#B6B6B6"/>
<path d="M12.8089 58.7987C12.3602 58.7987 11.9115 58.7987 11.4628 58.7987C10.6062 58.7586 9.62716 58.7185 8.64815 58.5583C7.70994 58.3981 6.89411 58.1177 6.15986 57.7573C5.38481 57.3567 4.65055 56.8761 4.03868 56.2352C3.4268 55.6344 2.89651 54.9535 2.48859 54.1525C2.08067 53.3914 1.83592 52.5904 1.67275 51.7092C1.4688 50.7079 1.42801 49.7065 1.42801 48.9455C1.42801 48.6251 1.38721 47.5837 1.38721 47.5837V12.537C1.38721 12.537 1.38722 11.4956 1.42801 11.2152C1.42801 10.4542 1.50959 9.41281 1.67275 8.45153C1.83592 7.5303 2.12147 6.72923 2.48859 5.96822C2.89651 5.2072 3.38601 4.48624 4.03868 3.88544C4.65055 3.28464 5.38481 2.76394 6.15986 2.36341C6.9349 1.96288 7.75073 1.72256 8.64815 1.56234C9.66795 1.40213 10.6878 1.32202 11.4628 1.32202H12.8089H191.273H192.66C193.435 1.32202 194.455 1.40213 195.475 1.56234C196.372 1.72256 197.188 2.00293 198.004 2.36341C198.779 2.76394 199.472 3.24458 200.125 3.88544C200.737 4.48624 201.267 5.16715 201.675 5.96822C202.083 6.72923 202.328 7.5303 202.491 8.41147C202.654 9.3327 202.736 10.294 202.736 11.2152C202.736 11.6157 202.736 12.0964 202.736 12.537C202.736 13.0977 202.736 13.6184 202.736 14.1391V45.9415C202.736 46.4622 202.736 47.023 202.736 47.5436C202.736 48.0243 202.736 48.4649 202.736 48.9055C202.695 49.7866 202.654 50.7479 202.491 51.6691C202.328 52.5904 202.083 53.3914 201.675 54.1525C201.267 54.9135 200.737 55.6344 200.125 56.1952C199.513 56.796 198.779 57.3167 198.004 57.7172C197.229 58.1177 196.413 58.3581 195.475 58.5183C194.496 58.6785 193.517 58.7185 192.66 58.7586C192.211 58.7586 191.763 58.7586 191.314 58.7586H189.682L12.8089 58.7987Z" fill="black"/>
<path d="M75.7502 40.5749H68.5708L66.8168 45.2612H63.6758L70.692 27.6777H73.6698L80.8491 45.2612H77.545L75.7502 40.5749ZM69.4682 38.1717H74.8119L72.8947 33.125C72.65 32.4441 72.3644 31.643 72.1197 30.8019C71.8749 31.5629 71.6302 32.3239 71.3854 33.0849L69.4682 38.1717Z" fill="white"/>
<path d="M82.1138 35.368C82.1138 34.4067 82.073 33.3252 82.0322 32.1637H84.8877C85.01 32.7244 85.0508 33.2451 85.0916 33.8059C86.2746 32.5242 87.6207 31.8833 89.1708 31.8833C90.0682 31.8833 90.884 32.0836 91.6591 32.5242C92.4341 32.9647 93.046 33.6457 93.4947 34.6069C93.9434 35.5682 94.1882 36.7698 94.1882 38.2117C94.1882 39.7338 93.9026 41.0555 93.3723 42.137C92.8421 43.2184 92.1078 44.0595 91.1288 44.5802C90.1906 45.141 89.0892 45.4214 87.8247 45.4214C86.9272 45.4214 86.0298 45.2611 85.1324 44.9808V50.4681L82.073 50.7084V35.368H82.1138ZM90.1498 42.0569C90.7617 41.2558 91.088 40.0542 91.088 38.4521C91.088 36.9701 90.8433 35.9287 90.313 35.2878C89.7827 34.647 89.13 34.2865 88.2734 34.2865C87.6615 34.2865 87.1312 34.4067 86.6417 34.687C86.1522 34.9674 85.6627 35.3279 85.214 35.8085V42.8179C85.4995 42.9781 85.8667 43.0983 86.2746 43.1784C86.6825 43.2585 87.0904 43.2985 87.4575 43.2985C88.5997 43.2985 89.4971 42.898 90.1498 42.0569Z" fill="white"/>
<path d="M96.0235 35.368C96.0235 34.4067 95.9827 33.3252 95.9419 32.1637H98.7973C98.9197 32.7244 98.9605 33.2451 99.0013 33.8059C100.184 32.5242 101.53 31.8833 103.08 31.8833C103.978 31.8833 104.794 32.0836 105.569 32.5242C106.344 32.9647 106.956 33.6457 107.404 34.6069C107.853 35.5682 108.098 36.7698 108.098 38.2117C108.098 39.7338 107.812 41.0555 107.282 42.137C106.752 43.2184 106.017 44.0595 105.038 44.5802C104.1 45.141 102.999 45.4214 101.734 45.4214C100.837 45.4214 99.9395 45.2611 99.0421 44.9808V50.4681L95.9827 50.7084V35.368H96.0235ZM104.059 42.0569C104.671 41.2558 104.998 40.0542 104.998 38.4521C104.998 36.9701 104.753 35.9287 104.223 35.2878C103.692 34.647 103.04 34.2865 102.183 34.2865C101.571 34.2865 101.041 34.4067 100.551 34.687C100.062 34.9674 99.5724 35.3279 99.1237 35.8085V42.8179C99.4092 42.9781 99.7763 43.0983 100.184 43.1784C100.592 43.2585 101 43.2985 101.367 43.2985C102.509 43.2985 103.448 42.898 104.059 42.0569Z" fill="white"/>
<path d="M113.687 44.4194C112.381 43.6984 111.361 42.6971 110.668 41.3353C109.975 40.0135 109.607 38.4114 109.607 36.609C109.607 34.6464 110.015 32.9641 110.831 31.6023C111.647 30.2405 112.748 29.1991 114.176 28.5182C115.563 27.8373 117.154 27.4768 118.908 27.4768C119.928 27.4768 120.907 27.597 121.845 27.7972C122.783 28.0376 123.64 28.3179 124.456 28.7185L123.681 31.0416C122.049 30.2805 120.499 29.9201 119.03 29.9201C117.807 29.9201 116.705 30.2004 115.767 30.7211C114.829 31.2418 114.095 32.0028 113.605 33.0042C113.075 34.0055 112.83 35.2472 112.83 36.649C112.83 37.8907 113.034 39.0122 113.442 39.9735C113.85 40.9347 114.462 41.6958 115.318 42.2966C116.175 42.8573 117.276 43.1377 118.582 43.1377C119.194 43.1377 119.765 43.0976 120.376 42.9775C120.988 42.8573 121.519 42.7372 122.049 42.5369V38.9721H117.929V36.649H125.027V44.0589C124.007 44.5396 122.946 44.9 121.804 45.1404C120.662 45.3807 119.561 45.5008 118.459 45.5008C116.583 45.5008 115.033 45.1404 113.687 44.4194Z" fill="white"/>
<path d="M135.755 45.2611C135.633 44.7404 135.592 44.1797 135.551 43.5388C135.062 44.0996 134.491 44.5401 133.716 44.9407C132.981 45.3412 132.125 45.5014 131.146 45.5014C130.371 45.5014 129.677 45.3412 129.065 45.0608C128.453 44.7805 127.923 44.3399 127.556 43.7391C127.189 43.1383 126.985 42.4173 126.985 41.5762C126.985 40.2945 127.434 39.2931 128.372 38.5321C129.31 37.7711 130.86 37.4106 133.022 37.4106C133.838 37.4106 134.654 37.4507 135.429 37.5709V37.3305C135.429 36.169 135.184 35.3679 134.695 34.8873C134.205 34.4066 133.471 34.1663 132.533 34.1663C131.88 34.1663 131.186 34.2464 130.452 34.4467C129.718 34.647 129.065 34.8472 128.494 35.1276L128.005 32.9647C128.535 32.7244 129.269 32.4841 130.167 32.2838C131.064 32.0835 132.002 31.9634 132.981 31.9634C134.123 31.9634 135.102 32.1236 135.918 32.4841C136.734 32.8446 137.346 33.4053 137.795 34.2464C138.243 35.0875 138.488 36.209 138.488 37.6109V42.8178C138.488 43.3786 138.529 44.1797 138.57 45.2611H135.755ZM133.96 42.8178C134.613 42.5375 135.102 42.1369 135.51 41.6963V39.2531C134.695 39.173 134.001 39.1329 133.471 39.1329C132.206 39.1329 131.35 39.3332 130.86 39.7337C130.371 40.1343 130.126 40.655 130.126 41.3359C130.126 41.9767 130.289 42.4574 130.656 42.7778C131.023 43.0982 131.472 43.2584 132.084 43.2584C132.696 43.2985 133.308 43.1383 133.96 42.8178Z" fill="white"/>
<path d="M140.895 42.1365V26.6759L143.914 26.4355V41.6158C143.914 42.1765 143.995 42.5771 144.199 42.8174C144.403 43.0577 144.689 43.1779 145.137 43.1779C145.341 43.1779 145.586 43.1378 145.953 43.0577L146.32 45.2206C146.035 45.3408 145.668 45.4209 145.26 45.501C144.852 45.5811 144.444 45.6211 144.077 45.6211C141.956 45.501 140.895 44.3795 140.895 42.1365Z" fill="white"/>
<path d="M148.482 42.1365V26.6759L151.501 26.4355V41.6158C151.501 42.1765 151.583 42.5771 151.787 42.8174C151.991 43.0577 152.276 43.1779 152.725 43.1779C152.929 43.1779 153.173 43.1378 153.541 43.0577L153.908 45.2206C153.622 45.3408 153.255 45.4209 152.847 45.501C152.439 45.5811 152.031 45.6211 151.664 45.6211C149.543 45.501 148.482 44.3795 148.482 42.1365Z" fill="white"/>
<path d="M166.39 39.0929H157.66C157.783 41.8165 159.129 43.2184 161.658 43.2184C162.27 43.2184 162.922 43.1383 163.575 42.9781C164.228 42.8179 164.84 42.6176 165.451 42.3773L166.104 44.42C164.595 45.141 162.922 45.5015 161.087 45.5015C159.659 45.5015 158.476 45.2211 157.497 44.7004C156.518 44.1797 155.784 43.4187 155.294 42.4173C154.805 41.416 154.56 40.2545 154.56 38.8526C154.56 37.4107 154.805 36.169 155.335 35.1276C155.865 34.0862 156.559 33.2852 157.497 32.7244C158.435 32.1637 159.496 31.8833 160.72 31.8833C161.984 31.8833 163.045 32.1637 163.861 32.7645C164.717 33.3252 165.329 34.1263 165.737 35.0876C166.145 36.0489 166.349 37.1303 166.349 38.2918V39.0929H166.39ZM163.412 37.2104C163.371 36.169 163.086 35.3679 162.596 34.8473C162.107 34.3266 161.495 34.0462 160.679 34.0462C159.904 34.0462 159.251 34.3266 158.762 34.8473C158.231 35.3679 157.905 36.169 157.742 37.1704H163.412V37.2104Z" fill="white"/>
<path d="M168.674 35.448C168.674 34.7271 168.633 33.6456 168.592 32.1636H171.448C171.489 32.5241 171.529 32.9647 171.57 33.4854C171.611 34.0061 171.652 34.4066 171.652 34.7271C172.019 34.1663 172.345 33.6857 172.712 33.2851C173.039 32.8846 173.447 32.5642 173.895 32.3239C174.344 32.0835 174.874 31.9634 175.445 31.9634C175.935 31.9634 176.302 32.0034 176.669 32.1236L176.302 34.7271C176.016 34.647 175.69 34.6069 175.323 34.6069C174.589 34.6069 173.977 34.7671 173.447 35.1276C172.916 35.4881 172.345 36.0889 171.733 36.8899V45.3012H168.715V35.448H168.674Z" fill="white"/>
<path d="M178.383 50.6277C177.934 50.5476 177.567 50.4675 177.281 50.3473L177.852 48.1844C178.056 48.2245 178.301 48.3046 178.627 48.3446C178.954 48.3847 179.239 48.4248 179.525 48.4248C180.871 48.4248 181.891 47.5836 182.543 45.8613L182.747 45.3807L177.852 32.2031H181.116L183.604 39.573C184.012 40.8146 184.257 41.8159 184.379 42.4568C184.624 41.4955 184.869 40.5743 185.195 39.613L187.683 32.1631H190.743L185.848 45.4207C185.399 46.6624 184.869 47.7038 184.338 48.4648C183.808 49.2258 183.155 49.7866 182.462 50.1871C181.728 50.5476 180.871 50.7478 179.81 50.7478C179.321 50.7478 178.831 50.7078 178.383 50.6277Z" fill="white"/>
<path d="M63.6758 10.9749H69.1011L68.938 12.2566H65.2667V14.7399H68.734V15.9415H65.2667V18.7052H69.1419L69.0195 19.9869H63.6758V10.9749Z" fill="white"/>
<path d="M72.8539 15.4208L69.9984 10.9749H71.7933L73.7513 14.2192L75.7909 10.9749H77.5449L74.6895 15.3407L77.7489 20.0269H75.9133L73.7105 16.4622L71.4669 20.0269H69.7129L72.8539 15.4208Z" fill="white"/>
<path d="M78.9321 10.9749H81.4204C82.6034 10.9749 83.5008 11.2152 84.1127 11.6958C84.7246 12.1765 85.0509 12.8574 85.0509 13.7385C85.0509 14.3393 84.9285 14.86 84.643 15.3006C84.3574 15.7412 83.9903 16.1017 83.46 16.342C82.9705 16.5823 82.3994 16.7025 81.7468 16.7025C81.3796 16.7025 80.9717 16.6624 80.523 16.5823V20.0269H78.9321V10.9749ZM82.9297 15.0202C83.2561 14.6998 83.4192 14.2993 83.4192 13.7385C83.4192 13.1778 83.256 12.7773 82.8889 12.5369C82.5626 12.2966 82.0323 12.1765 81.3796 12.1765H80.523V15.3807C80.9309 15.4608 81.2165 15.4608 81.4204 15.4608C82.1139 15.4608 82.6034 15.3006 82.9297 15.0202Z" fill="white"/>
<path d="M86.6416 10.9749H88.2325V18.7052H92.0669L91.9446 20.0269H86.6824V10.9749H86.6416Z" fill="white"/>
<path d="M94.4734 19.5866C93.78 19.2262 93.2905 18.6654 92.9234 17.9845C92.5562 17.3036 92.3931 16.5025 92.3931 15.5813C92.3931 14.62 92.597 13.7789 92.9641 13.0579C93.3313 12.337 93.9024 11.7762 94.5958 11.4157C95.3301 11.0152 96.1459 10.8149 97.1249 10.8149C98.0631 10.8149 98.8382 11.0152 99.5317 11.3757C100.184 11.7362 100.715 12.2969 101.082 12.9778C101.449 13.6587 101.612 14.4598 101.612 15.341C101.612 16.3023 101.408 17.1434 101.041 17.8643C100.674 18.5853 100.103 19.146 99.4093 19.5065C98.7158 19.9071 97.8592 20.1073 96.921 20.1073C95.942 20.1474 95.1261 19.9471 94.4734 19.5866ZM98.5934 18.4651C99.0421 18.1848 99.3685 17.7842 99.6132 17.2635C99.8172 16.7428 99.9396 16.142 99.9396 15.5012C99.9396 14.8603 99.858 14.2595 99.654 13.7789C99.4501 13.2582 99.1645 12.8577 98.7158 12.5773C98.2671 12.2569 97.7368 12.1367 97.0433 12.1367C96.3907 12.1367 95.8604 12.2969 95.4117 12.5773C94.9629 12.8977 94.6366 13.2983 94.3919 13.8189C94.1471 14.3396 94.0655 14.9004 94.0655 15.5412C94.0655 16.1821 94.1879 16.7829 94.3919 17.3036C94.5958 17.8243 94.9222 18.2248 95.3709 18.5452C95.8196 18.8657 96.3499 18.9858 97.0026 18.9858C97.6144 18.9057 98.1447 18.7856 98.5934 18.4651Z" fill="white"/>
<path d="M103.367 10.9749H106.263C107.324 10.9749 108.099 11.1751 108.67 11.5757C109.241 11.9762 109.486 12.577 109.486 13.338C109.486 13.8186 109.404 14.2592 109.2 14.6197C108.996 14.9802 108.751 15.3006 108.466 15.5009C108.18 15.7412 107.895 15.9014 107.568 16.0216L110.424 20.0269H108.547L106.141 16.4221H104.958V20.0269H103.367V10.9749ZM105.855 15.2606C106.222 15.2606 106.589 15.1805 106.875 15.0202C107.16 14.86 107.405 14.6598 107.568 14.3794C107.731 14.099 107.813 13.7786 107.813 13.4582C107.813 13.0176 107.65 12.6571 107.364 12.4568C107.079 12.2566 106.63 12.1364 106.1 12.1364H104.958V15.2205H105.855V15.2606Z" fill="white"/>
<path d="M111.647 10.9749H117.072L116.909 12.2566H113.238V14.7399H116.705V15.9415H113.238V18.7052H117.113L116.991 19.9869H111.647V10.9749Z" fill="white"/>
<path d="M122.987 10.9749H124.578V20.0269H122.987V10.9749Z" fill="white"/>
<path d="M128.82 12.2566H125.965L126.087 10.9348H133.267L133.103 12.2566H130.37V20.0269H128.779V12.2566H128.82Z" fill="white"/>
<path d="M140.201 19.5866C139.508 19.2262 139.019 18.6654 138.651 17.9845C138.284 17.3036 138.121 16.5025 138.121 15.5813C138.121 14.62 138.325 13.7789 138.692 13.0579C139.059 12.337 139.63 11.7762 140.324 11.4157C141.058 11.0152 141.874 10.8149 142.853 10.8149C143.791 10.8149 144.566 11.0152 145.26 11.3757C145.912 11.7362 146.443 12.2969 146.81 12.9778C147.177 13.6587 147.34 14.4598 147.34 15.341C147.34 16.3023 147.136 17.1434 146.769 17.8643C146.402 18.5853 145.831 19.146 145.137 19.5065C144.444 19.9071 143.587 20.1073 142.649 20.1073C141.67 20.1474 140.854 19.9471 140.201 19.5866ZM144.321 18.4651C144.77 18.1848 145.096 17.7842 145.341 17.2635C145.545 16.7428 145.668 16.142 145.668 15.5012C145.668 14.8603 145.586 14.2595 145.382 13.7789C145.178 13.2582 144.893 12.8577 144.444 12.5773C143.995 12.2569 143.465 12.1367 142.771 12.1367C142.119 12.1367 141.588 12.2969 141.14 12.5773C140.691 12.8977 140.365 13.2983 140.12 13.8189C139.875 14.3396 139.794 14.9004 139.794 15.5412C139.794 16.1821 139.916 16.7829 140.12 17.3036C140.324 17.8243 140.65 18.2248 141.099 18.5452C141.548 18.8657 142.078 18.9858 142.731 18.9858C143.302 18.9057 143.873 18.7856 144.321 18.4651Z" fill="white"/>
<path d="M149.094 10.9749H150.93L155.499 17.9842C155.458 17.3033 155.458 16.7025 155.458 16.1417V10.9749H156.926V20.0269H155.172L150.522 12.8974C150.563 13.6985 150.604 14.4194 150.604 15.0603V20.0269H149.135V10.9749H149.094Z" fill="white"/>
<path fill-rule="evenodd" clip-rule="evenodd" d="M41.24 11.0144H24.3113C16.3161 11.0144 13.4199 13.8982 13.4199 21.7087V38.3308C13.4199 46.1813 16.3569 49.0251 24.3113 49.0251H41.24C49.2352 49.0251 52.1314 46.1412 52.1314 38.3308V21.7087C52.1722 13.8982 49.2352 11.0144 41.24 11.0144Z" fill="#C8102E"/>
<path d="M21.0886 30.0405H22.1084V35.0071H21.0886V33.0045H18.7634V35.0071H17.7437V30.0405H18.7634V32.0432H21.0886V30.0405ZM26.881 32.8843C26.881 33.6854 26.4731 34.126 25.7388 34.126C25.0046 34.126 24.5967 33.6854 24.5967 32.8443V30.0405H23.5769V32.8843C23.5769 34.2862 24.3519 35.0872 25.7388 35.0872C27.1258 35.0872 27.9416 34.2862 27.9416 32.8443V30.0405H26.9218V32.8843H26.881ZM38.7515 33.4451L37.6093 30.0405H36.7526L35.6105 33.4451L34.5091 30.0405H33.4077L35.1618 35.0071H36.0184L37.1606 31.7228L38.3027 35.0071H39.1594L40.9134 30.0405H39.8528L38.7515 33.4451ZM42.7898 32.8843H44.6663V31.9631H42.7898V30.9618H45.5229V30.0405H41.8108V35.0071H45.6453V34.0859H42.8306V32.8843H42.7898ZM46.8282 35.0071H47.848V30.0405H46.8282V35.0071ZM29.9404 33.9658L29.4917 35.0071H28.4311L30.6339 30.0405H31.5313L33.734 35.0071H32.6735L32.2248 33.9658H29.9404ZM30.3075 33.0846H31.8576L31.0826 31.3222L30.3075 33.0846Z" fill="white"/>
<path d="M32.7957 23.7117C29.2468 23.7117 26.3506 20.868 26.3506 17.3833H27.248C27.248 20.3873 29.7363 22.8306 32.7957 22.8306C35.8551 22.8306 38.3434 20.3873 38.3434 17.3833H39.2408C39.2408 20.868 36.3446 23.7117 32.7957 23.7117Z" fill="white"/>
</symbol>

</svg>