<svg aria-hidden="true" style="position: absolute; width: 0; height: 0; overflow: hidden;" version="1.1" xmlns="http://www.w3.org/2000/svg" xmlns:xlink="http://www.w3.org/1999/xlink">
<defs>
<symbol id="icon-instagram" viewBox="0 0 32 32">
<path fill="#000" style="fill: var(--color1, #000)" d="M16 0c8.837 0 16 7.163 16 16s-7.163 16-16 16c-8.837 0-16-7.163-16-16s7.163-16 16-16z"></path>
<path fill="#fff" style="fill: var(--color2, #fff)" d="M16 9.446c2.12 0 2.41 0 3.277 0 0.771 0 1.157 0.193 1.446 0.289 0.386 0.193 0.675 0.289 0.964 0.578s0.482 0.578 0.578 0.964c0.096 0.289 0.193 0.675 0.289 1.446 0 0.868 0 1.060 0 3.277s0 2.41 0 3.277c0 0.771-0.193 1.157-0.289 1.446-0.193 0.386-0.289 0.675-0.578 0.964s-0.578 0.482-0.964 0.578c-0.289 0.096-0.675 0.193-1.446 0.289-0.867 0-1.060 0-3.277 0s-2.41 0-3.277 0c-0.771 0-1.157-0.193-1.446-0.289-0.386-0.193-0.675-0.289-0.964-0.578s-0.482-0.578-0.578-0.964c-0.096-0.289-0.193-0.675-0.289-1.446 0-0.867 0-1.060 0-3.277s0-2.41 0-3.277c0-0.771 0.193-1.157 0.289-1.446 0.193-0.386 0.289-0.675 0.578-0.964s0.578-0.482 0.964-0.578c0.289-0.096 0.675-0.193 1.446-0.289 0.868 0 1.157 0 3.277 0zM16 8c-2.217 0-2.41 0-3.277 0s-1.446 0.193-1.928 0.386c-0.482 0.193-0.964 0.482-1.446 0.964s-0.675 0.868-0.964 1.446c-0.193 0.482-0.289 1.060-0.386 1.928 0 0.868 0 1.157 0 3.277 0 2.217 0 2.41 0 3.277s0.193 1.446 0.386 1.928c0.193 0.482 0.482 0.964 0.964 1.446s0.868 0.675 1.446 0.964c0.482 0.193 1.060 0.289 1.928 0.386 0.868 0 1.157 0 3.277 0s2.41 0 3.277 0c0.867 0 1.446-0.193 1.928-0.386s0.964-0.482 1.446-0.964c0.482-0.482 0.675-0.868 0.964-1.446 0.193-0.482 0.289-1.060 0.386-1.928 0-0.867 0-1.157 0-3.277s0-2.41 0-3.277c0-0.867-0.193-1.446-0.386-1.928s-0.482-0.964-0.964-1.446c-0.482-0.482-0.868-0.675-1.446-0.964-0.482-0.193-1.060-0.289-1.928-0.386-0.867 0-1.060 0-3.277 0z"></path>
<path fill="#fff" style="fill: var(--color2, #fff)" d="M16 11.855c-2.313 0-4.145 1.831-4.145 4.145s1.831 4.145 4.145 4.145c2.313 0 4.145-1.831 4.145-4.145s-1.831-4.145-4.145-4.145zM16 18.699c-1.446 0-2.699-1.157-2.699-2.699 0-1.446 1.157-2.699 2.699-2.699 1.446 0 2.699 1.157 2.699 2.699 0 1.446-1.253 2.699-2.699 2.699z"></path>
<path fill="#fff" style="fill: var(--color2, #fff)" d="M20.241 12.723c0.532 0 0.964-0.432 0.964-0.964s-0.432-0.964-0.964-0.964c-0.532 0-0.964 0.432-0.964 0.964s0.432 0.964 0.964 0.964z"></path>
</symbol>
<symbol id="icon-facebook" viewBox="0 0 32 32">
<path fill="#000" style="fill: var(--color1, #000)" d="M16 0c8.837 0 16 7.163 16 16s-7.163 16-16 16c-8.837 0-16-7.163-16-16s7.163-16 16-16z"></path>
<path fill="#fff" style="fill: var(--color2, #fff)" d="M17.326 16.292h2.978l0.468-3.043h-3.446v-1.663c0-1.264 0.411-2.385 1.586-2.385h1.889v-2.656c-0.332-0.045-1.034-0.144-2.36-0.144-2.769 0-4.393 1.471-4.393 4.824v2.025h-2.847v3.043h2.847v8.365c0.564 0.085 1.135 0.143 1.721 0.143 0.53 0 1.047-0.049 1.558-0.118v-8.39z"></path>
</symbol>
<symbol id="icon-whatsapp" viewBox="0 0 32 32">
<path fill="#000" style="fill: var(--color1, #000)" d="M16 0c8.837 0 16 7.163 16 16s-7.163 16-16 16c-8.837 0-16-7.163-16-16s7.163-16 16-16z"></path>
<path fill="#fff" style="fill: var(--color2, #fff)" d="M22.341 9.65c-1.58-1.575-3.688-2.45-5.912-2.45-4.624 0-8.371 3.733-8.371 8.342 0 1.458 0.41 2.917 1.112 4.142l-1.171 4.317 4.449-1.167c1.229 0.642 2.576 0.992 3.98 0.992 4.624 0 8.371-3.733 8.371-8.342-0.059-2.158-0.878-4.258-2.459-5.833zM20.468 18.517c-0.176 0.467-0.995 0.933-1.405 0.992-0.351 0.058-0.82 0.058-1.288-0.058-0.293-0.117-0.702-0.233-1.171-0.467-2.107-0.875-3.454-2.975-3.571-3.15-0.117-0.117-0.878-1.108-0.878-2.158s0.527-1.517 0.702-1.75c0.176-0.233 0.41-0.233 0.585-0.233 0.117 0 0.293 0 0.41 0s0.293-0.058 0.468 0.35c0.176 0.408 0.585 1.458 0.644 1.517 0.059 0.117 0.059 0.233 0 0.35s-0.117 0.233-0.234 0.35c-0.117 0.117-0.234 0.292-0.293 0.35-0.117 0.117-0.234 0.233-0.117 0.408 0.117 0.233 0.527 0.875 1.171 1.458 0.819 0.7 1.463 0.933 1.698 1.050s0.351 0.058 0.468-0.058c0.117-0.117 0.527-0.583 0.644-0.817s0.293-0.175 0.468-0.117 1.229 0.583 1.405 0.7c0.234 0.117 0.351 0.175 0.41 0.233 0.059 0.175 0.059 0.583-0.117 1.050z"></path>
</symbol>
<symbol id="icon-viber" viewBox="0 0 32 32">
<path fill="#000" style="fill: var(--color1, #000)" d="M16 0c8.837 0 16 7.163 16 16s-7.163 16-16 16c-8.837 0-16-7.163-16-16s7.163-16 16-16z"></path>
<path fill="#fff" style="fill: var(--color2, #fff)" d="M21.003 7.637c-3.049-0.582-6.216-0.582-9.265 0-1.349 0.291-3.049 1.922-3.342 3.203-0.528 2.504-0.528 5.066 0 7.57 0.352 1.281 2.052 2.912 3.342 3.203 0.059 0 0.117 0.058 0.117 0.116v3.669c0 0.175 0.235 0.291 0.352 0.116l1.759-1.805c0 0 1.407-1.456 1.642-1.689 0 0 0.059-0.058 0.117-0.058 1.759 0.058 3.577-0.116 5.336-0.408 1.349-0.291 3.049-1.922 3.342-3.203 0.528-2.504 0.528-5.066 0-7.57-0.352-1.223-2.052-2.853-3.401-3.144zM21.062 18.584c-0.293 0.582-0.645 1.048-1.231 1.339-0.176 0.058-0.352 0.116-0.528 0.175-0.235-0.058-0.41-0.116-0.586-0.175-1.876-0.757-3.636-1.805-5.043-3.319-0.762-0.873-1.407-1.863-1.935-2.912-0.235-0.524-0.469-0.99-0.645-1.514-0.176-0.466 0.117-0.932 0.41-1.281s0.645-0.582 1.056-0.757c0.293-0.175 0.586-0.058 0.821 0.175 0.469 0.582 0.938 1.165 1.29 1.805 0.235 0.408 0.176 0.874-0.235 1.165-0.117 0.058-0.176 0.116-0.293 0.233-0.059 0.058-0.176 0.116-0.235 0.233-0.117 0.175-0.117 0.349-0.059 0.524 0.469 1.339 1.349 2.387 2.697 2.97 0.235 0.116 0.41 0.175 0.704 0.175 0.41-0.058 0.586-0.524 0.88-0.757s0.645-0.233 0.997-0.058c0.293 0.175 0.586 0.408 0.938 0.641 0.293 0.233 0.586 0.408 0.88 0.641 0.176 0.116 0.235 0.408 0.117 0.699zM18.599 14.217c-0.117 0-0.059 0 0 0-0.235 0-0.293-0.116-0.352-0.291 0-0.116 0-0.291-0.059-0.408-0.059-0.233-0.176-0.466-0.41-0.641-0.117-0.058-0.235-0.116-0.352-0.175-0.176-0.058-0.293-0.058-0.469-0.058-0.176-0.058-0.235-0.175-0.235-0.349 0-0.116 0.176-0.233 0.293-0.233 0.938 0.058 1.642 0.582 1.759 1.689 0 0.058 0 0.175 0 0.233 0 0.116-0.059 0.233-0.176 0.233zM18.013 11.655c-0.293-0.116-0.586-0.233-0.938-0.291-0.117 0-0.293-0.058-0.41-0.058-0.176 0-0.293-0.116-0.235-0.291 0-0.175 0.117-0.291 0.293-0.233 0.586 0.058 1.114 0.175 1.642 0.408 1.056 0.524 1.642 1.398 1.818 2.562 0 0.058 0 0.116 0 0.175 0 0.116 0 0.233 0 0.408 0 0.058 0 0.116 0 0.175-0.059 0.233-0.469 0.291-0.528 0 0-0.058-0.059-0.175-0.059-0.233 0-0.524-0.117-1.048-0.352-1.514-0.352-0.524-0.762-0.873-1.231-1.106zM21.179 15.148c-0.176 0-0.293-0.175-0.293-0.349 0-0.349-0.059-0.699-0.117-1.048-0.235-1.863-1.759-3.377-3.577-3.669-0.293-0.058-0.586-0.058-0.821-0.116-0.176 0-0.41 0-0.469-0.233-0.059-0.175 0.117-0.349 0.293-0.349 0.059 0 0.117 0 0.117 0 0.117 0 2.404 0.058 0 0 2.463 0.058 4.515 1.689 4.926 4.134 0.059 0.408 0.117 0.815 0.117 1.281 0.117 0.175 0 0.349-0.176 0.349z"></path>
</symbol>
<symbol id="icon-tiktok" viewBox="0 0 32 32">
<path fill="#000" style="fill: var(--color1, #000)" d="M16 0c8.837 0 16 7.163 16 16s-7.163 16-16 16c-8.837 0-16-7.163-16-16s7.163-16 16-16z"></path>
<path fill="#fff" style="fill: var(--color2, #fff)" d="M23.981 11.403c-1.115-0-2.184-0.443-2.972-1.231s-1.231-1.857-1.231-2.972h-3.003v11.758c-0.001 0.536-0.17 1.058-0.484 1.493s-0.757 0.759-1.266 0.928-1.058 0.173-1.569 0.013c-0.511-0.161-0.959-0.478-1.28-0.908s-0.498-0.949-0.508-1.485c-0.009-0.536 0.151-1.061 0.457-1.501s0.743-0.773 1.249-0.951c0.506-0.178 1.054-0.192 1.569-0.041v-2.919c-1.093-0.147-2.205 0.042-3.187 0.543s-1.788 1.29-2.31 2.261c-0.522 0.971-0.736 2.079-0.612 3.175s0.579 2.128 1.305 2.958 1.688 1.419 2.757 1.689c1.069 0.269 2.195 0.206 3.228-0.182s1.922-1.081 2.55-1.987c0.628-0.906 0.964-1.983 0.964-3.086l0.088-5.943c1.234 0.906 2.725 1.393 4.255 1.391l-0-3.002z"></path>
</symbol>
<symbol id="icon-telegram" viewBox="0 0 32 32">
<path fill="#000" style="fill: var(--color1, #000)" d="M16 0c8.837 0 16 7.163 16 16s-7.163 16-16 16c-8.837 0-16-7.163-16-16s7.163-16 16-16z"></path>
<path fill="#fff" style="fill: var(--color2, #fff)" d="M22.4 10.082l-2.404 12.552c0 0-0.336 0.87-1.261 0.453l-5.547-4.405-0.026-0.013c0.749-0.697 6.56-6.107 6.814-6.352 0.393-0.38 0.149-0.606-0.307-0.319l-8.583 5.644-3.311-1.154c0 0-0.521-0.192-0.571-0.609s0.588-0.644 0.588-0.644l13.499-5.484c0 0 1.11-0.505 1.11 0.331z"></path>
</symbol>
</defs>
</svg>
